<?xml version="1.0" encoding="utf-8"?>
<!-- Generator: Adobe Illustrator 27.1.1, SVG Export Plug-In . SVG Version: 6.00 Build 0)  -->
<svg version="1.1" id="Ebene_1" xmlns="http://www.w3.org/2000/svg" xmlns:xlink="http://www.w3.org/1999/xlink" x="0px" y="0px"
	 viewBox="0 0 481.9 226.8" enable-background="new 0 0 481.9 226.8" xml:space="preserve">
<g>
	<g>
		<path d="M205.4,94l-2.1-7.2h-8.7l-2.1,7.2h-2.8l7.6-24.2h3.5l7.6,24.2H205.4z M199.8,75.3l-0.8-3h-0.3l-0.8,3l-2.7,9.2h7.4
			L199.8,75.3z"/>
		<path d="M214.3,94c-1.9,0-2.7-0.8-2.7-2.7V68.4h2.6v23.3h2.3V94H214.3z"/>
		<path d="M219,85.1c0-6.7,3.1-9.4,7.3-9.4c4.2,0,7,2.7,7,9.4v0.7h-11.5v1.1c0,3.5,1.7,5.2,4.5,5.2c2.4,0,3.9-1.1,4.7-3.1l1.8,1.3
			c-1.1,2.4-3.2,4.1-6.5,4.1C222.1,94.4,219,91.7,219,85.1z M221.8,83.3v0.4h8.7v-0.4c0-3.5-1.4-5.3-4.2-5.3
			C223.4,77.9,221.8,79.8,221.8,83.3z"/>
		<path d="M235,94l5.9-9.1l-5.6-8.8h3l4,6.5h0.3l4.1-6.5h2.9l-5.6,8.7l5.8,9.2h-3l-4.1-7h-0.3l-4.3,7H235z"/>
		<path d="M264.2,94c-1.7,0-2.6-0.9-2.6-2.6v-0.3h-0.3c-0.6,2.1-2.3,3.3-4.5,3.3c-3.5,0-5.2-1.8-5.2-5.2c0-3.3,2.1-5.4,6.8-5.4h3.2
			v-2c0-2.6-1.1-3.8-3.7-3.8c-2,0-3.3,0.9-4.2,2.6l-1.6-1.5c0.9-1.9,3.1-3.4,5.8-3.4c4,0,6.2,2,6.2,5.8v10.1h1.8V94H264.2z
			 M261.6,88.5v-2.7h-3.3c-2.8,0-4,1-4,2.7v1c0,1.8,1.2,2.6,3.1,2.6C259.8,92.1,261.6,90.4,261.6,88.5z"/>
		<path d="M269.6,94V76.1h2.6V79h0.3c0.7-2.2,2.1-3.3,4.6-3.3c3.2,0,5.1,2.1,5.1,6.7V94h-2.6V82.5c0-2.8-1.2-4.4-3.6-4.4
			c-2.1,0-3.8,1.4-3.8,3.7V94H269.6z"/>
		<path d="M297.6,91.1h-0.3c-0.7,2.3-2.3,3.3-4.5,3.3c-4.3,0-6.5-3.6-6.5-9.4c0-5.8,2.3-9.4,6.5-9.4c2.2,0,3.8,1,4.5,3.3h0.3V68.4
			h2.6V94h-2.6V91.1z M297.6,88.7v-7.2c0-2-1.8-3.4-4.1-3.4c-2.9,0-4.5,1.9-4.5,5.2v3.6c0,3.3,1.6,5.2,4.5,5.2
			C295.8,92.1,297.6,90.7,297.6,88.7z"/>
		<path d="M304.3,85.1c0-6.7,3.1-9.4,7.3-9.4c4.2,0,7,2.7,7,9.4v0.7h-11.5v1.1c0,3.5,1.7,5.2,4.5,5.2c2.4,0,3.9-1.1,4.7-3.1l1.8,1.3
			c-1.1,2.4-3.2,4.1-6.5,4.1C307.4,94.4,304.3,91.7,304.3,85.1z M307.1,83.3v0.4h8.7v-0.4c0-3.5-1.4-5.3-4.2-5.3
			C308.8,77.9,307.1,79.8,307.1,83.3z"/>
		<path d="M322.7,94V76.1h2.6v3.3h0.3c0.6-2,2.1-3.3,4.4-3.3h1v2.7h-1.7c-2.5,0-4,1.1-4,3.3V94H322.7z"/>
		<path d="M345.1,94l-5.6-17.9h2.6l2.7,9l1.7,6.5h0.3l1.7-6.5l2.7-9h2.6L348.2,94H345.1z"/>
		<path d="M355.5,85.1c0-6.7,3.1-9.4,7.3-9.4c4.2,0,7.3,2.7,7.3,9.4c0,6.7-3.1,9.4-7.3,9.4C358.6,94.4,355.5,91.7,355.5,85.1z
			 M367.3,86.9v-3.6c0-3.5-1.6-5.2-4.5-5.2c-2.8,0-4.5,1.7-4.5,5.2v3.6c0,3.5,1.6,5.2,4.5,5.2C365.7,92.1,367.3,90.4,367.3,86.9z"/>
		<path d="M374.2,94V76.1h2.6V79h0.3c0.7-2.2,2.1-3.3,4.6-3.3c3.2,0,5.1,2.1,5.1,6.7V94h-2.6V82.5c0-2.8-1.2-4.4-3.6-4.4
			c-2.1,0-3.8,1.4-3.8,3.7V94H374.2z"/>
	</g>
	<g>
		<path d="M210.5,127.1h-12v15.1h-7.4V106h7.4v14.7h12V106h7.4v36.2h-7.4V127.1z"/>
		<path d="M234.2,106v23.5c0,4.8,1.4,6.7,5.6,6.7c4.2,0,5.6-2,5.6-6.7V106h7.4v22.5c0,10.2-3.4,14.3-13,14.3s-13-4.1-13-14.3V106
			H234.2z"/>
		<path d="M286,123.3l0.4-6.1h-0.8l-2.2,5.8l-6,13.1l-6-13.1l-2.2-5.8h-0.8l0.4,6.1v18.9h-6.9V106h7.8l4.9,10.8l2.7,7.7h0.5l2.7-7.7
			l4.8-10.8h7.7v36.2H286V123.3z"/>
		<path d="M302.1,106h16.1c5.8,0,8.6,3.7,8.6,9.3c0,6.1-3.1,7.6-6.1,7.8v0.8c3.4,0,7.4,2.1,7.4,8c0,5.7-3.2,10.3-8.4,10.3h-17.5V106
			z M309.5,120.9h6.8c1.7,0,2.7-0.9,2.7-3.1v-2.4c0-2.2-1-3.1-2.7-3.1h-6.8V120.9z M309.5,135.9h8c1.7,0,2.7-0.9,2.7-3.2v-2.6
			c0-2.3-1.1-3.2-2.7-3.2h-8V135.9z"/>
		<path d="M334.1,124.1c0-13.5,5.7-18.7,14.4-18.7c8.7,0,14.4,5.2,14.4,18.7c0,13.5-5.7,18.7-14.4,18.7
			C339.8,142.8,334.1,137.6,334.1,124.1z M354.9,128.8v-9.4c0-4.9-2.4-7.5-6.5-7.5s-6.5,2.5-6.5,7.5v9.4c0,4.9,2.4,7.5,6.5,7.5
			S354.9,133.7,354.9,128.8z"/>
		<path d="M370.7,142.2V106h7.4v29.7h12.3v6.5H370.7z"/>
		<path d="M397.6,106h12.7c8.8,0,14.1,5.1,14.1,18.1c0,13-5.3,18.1-14.1,18.1h-12.7V106z M410.3,135.7c4.1,0,6.3-2.3,6.3-7.3v-8.7
			c0-4.9-2.2-7.3-6.3-7.3H405v23.2H410.3z"/>
		<path d="M444.9,112.5v29.7h-7.4v-29.7h-8.7V106h24.7v6.5H444.9z"/>
	</g>
	<g>
		<path d="M190.1,179.7l2.5-2.1c1.8,2.7,4.1,4.2,7.2,4.2c4,0,6.1-1.9,6.1-5.7c0-3.1-1.3-4.5-5-5.4l-2.2-0.6
			c-5.3-1.3-7.7-3.7-7.7-8.3c0-5.3,3.6-8.1,9.1-8.1c4.2,0,6.9,1.5,9,4.8l-2.5,1.8c-1.6-2.4-3.4-3.7-6.6-3.7c-3.7,0-5.6,1.5-5.6,5.1
			c0,2.9,1.5,4.2,5,5.1l2.2,0.6c5.6,1.4,7.7,3.7,7.7,8.7c0,5.6-3.6,8.7-9.5,8.7C195.4,184.9,192.2,182.9,190.1,179.7z"/>
		<path d="M223.4,157.3v27.1H220v-27.1h-8.5v-3h20.4v3H223.4z"/>
		<path d="M235,184.3v-2.8h3.8v-24.4H235v-2.8h11v2.8h-3.8v24.4h3.8v2.8H235z"/>
		<path d="M251.9,184.3v-30.1h16.3v3h-12.8v10.3H267v3h-11.6v13.7H251.9z"/>
		<path d="M283,157.3v27.1h-3.4v-27.1H271v-3h20.4v3H283z"/>
		<path d="M299.2,154.2v19.5c0,5.4,1.6,8.1,6.3,8.1s6.3-2.7,6.3-8.1v-19.5h3.4V173c0,8-2.5,11.8-9.8,11.8s-9.8-3.8-9.8-11.8v-18.8
			H299.2z"/>
		<path d="M328.4,164.8l-2.6-6.2h-0.4l0.3,6.2v19.5h-3.4v-30.1h4.2l10,19.5l2.6,6.2h0.4l-0.3-6.2v-19.5h3.4v30.1h-4.2L328.4,164.8z"
			/>
		<path d="M367.3,180.2h-0.4c-0.6,2.7-3,4.7-7.5,4.7c-6.6,0-11-4.8-11-15.6c0-10.7,4.2-15.6,11.5-15.6c5.3,0,8.3,2.5,10,6.4
			l-2.8,1.7c-1.2-3.1-3.5-5-7.2-5c-5,0-7.8,3.6-7.8,9.1v6.7c0,5.6,2.8,9.1,7.8,9.1c3.9,0,7.2-2.4,7.2-6.6V172h-6v-3h9.3v15.4h-3.2
			V180.2z"/>
	</g>
	<g>
		<circle fill="#76EB9F" cx="100.7" cy="130.2" r="72.4"/>
		<g>
			<polygon points="97.1,111.5 99.7,110.7 106.3,111.2 110.6,113.7 106.3,113.6 104.8,115.5 101,115.4 100.1,113.4 98.5,113.4 
				98.3,116.6 94.2,115.4 			"/>
			<path d="M90.3,142.5"/>
			<polygon points="96.6,163.4 97.1,165.6 101.1,167.3 96.3,168.2 95.1,167 			"/>
			<polygon points="138.7,102.7 134.9,105.8 131.2,114.2 135.9,114 136.6,118.4 135.3,122.3 137.9,119.1 138,112 135.3,110.4 
				135.7,107.4 			"/>
			<polyline points="138.1,194.1 156.2,146.7 152.1,140.3 145.3,138.8 148.8,144.6 142.7,162.8 120.5,194.9 119,198.6 			"/>
			<polygon points="71.8,160.5 74.8,164.3 69.9,172.1 73.9,191.9 82.5,165.8 			"/>
			<g>
				<polygon points="128.7,127.3 127.9,135.1 120.3,145.4 120.5,157.7 123.9,145.7 129,140.1 135.3,129.1 131.9,130.4 				"/>
				<polygon points="125.9,130.6 125.7,130.6 125.7,130.7 				"/>
				<polygon points="140.5,88 138.1,83.4 140.6,77.1 129.1,59.5 120,55.3 106.7,53.4 99.6,46.2 88.5,46.2 73.7,52.9 70.3,59.4 
					61.1,58.9 50.9,64 59.4,65.2 53.3,73.6 58.2,71.5 63,72.3 55.4,79.8 53.7,91.9 52.4,101.3 48.2,107.2 53.9,107.4 48.5,111.7 
					55.7,118.1 65.9,121.6 58.8,114.2 60.6,109.8 59.6,105.3 59.6,86.5 67,77.8 83.3,75.4 84.9,71.2 89.2,69.5 92.3,74.5 92.3,83.2 
					104,73.3 105.7,65.8 111.2,72.3 113.6,79.5 110.1,86.7 115.8,83.5 114.5,92.4 120.6,100.3 124.4,106.5 124.9,112.3 128.7,116.7 
					131.1,107.2 134.7,102.1 138,99.6 141.2,100.5 141.3,89.6 				"/>
			</g>
			<polygon points="88.5,110.1 93.1,110.5 100.3,107.8 106.6,107.8 114.4,109.5 107.6,103.5 101.1,103.3 92.1,108.3 			"/>
			<path d="M86.5,151.6l4,3l5.5-0.5l3.5-3.1l-6.9,0.7l-3.3-2.3l4.4,0l3-1.1l6.3-0.2l4.7-1.8l1.1,3.1l0.5-4.7l-5.3-2.7l2.8,3.1
				l-3.7,1.4l-8.4-0.9l-2.9,1.7l-2.7-0.6l-5.3,1.5l-3.6-1.6l3.8,4.1L86.5,151.6z M86.8,142.5l4-1l3.7-3.6l2.6,0.2l1.2-1.4l-3.8-0.7
				l-2.5,2.7l-5,0.4l-2.7-2.3l-0.1-23.2l-3.9-2.8l-5.1-1.7l-7.9,0.4l-4-10.2l0.1-10.4l6.9-13.7L58,84l-2.6,27.3l4.2,5.5l3.9,2.3
				l1.7,3.2l0.5,10.7l3.5,8.4l5,14.2l15,14.3l11.4,0.1l6.9-4.8l-5.4,1.8l-11.6-0.2l-7.2-6.4l-7-6.9l-2-9.4l-4.3-7.7l-1.3-7.1v-4.5
				l6.2,0.9l-2.3-2.1l-1-2.8l1.7-1.9l1.4,1.4l2.9-0.3l1.3-2.4l2.9,2.3l-1.8,21.1l2.3,1.9l2.8,0.4L86.8,142.5z M67.7,116.9l-0.8-3.2
				l6.6-0.6l2.8,1.4L67.7,116.9z"/>
		</g>
	</g>
</g>
<g>
	<path d="M192.3,25.6v5.1c0,0.8,0.1,1.4,0.4,1.8c0.3,0.4,0.8,0.6,1.5,0.6c0.7,0,1.2-0.2,1.5-0.6c0.3-0.4,0.4-1,0.4-1.8v-5.1h1v4.8
		c0,0.6-0.1,1.1-0.2,1.5c-0.1,0.4-0.3,0.8-0.5,1.1c-0.2,0.3-0.5,0.5-0.9,0.6c-0.4,0.1-0.8,0.2-1.4,0.2c-0.5,0-1-0.1-1.4-0.2
		c-0.4-0.1-0.7-0.4-0.9-0.6c-0.2-0.3-0.4-0.7-0.5-1.1c-0.1-0.4-0.1-1-0.1-1.5v-4.8H192.3z"/>
	<path d="M201.3,28.7l-1-1.8h0v6.8h-1v-8.2h1.1l3,5l1,1.8h0v-6.8h1v8.2h-1.1L201.3,28.7z"/>
	<path d="M210.3,26.4v7.3h-1v-7.3h-2.6v-0.9h6.2v0.9H210.3z"/>
	<path d="M214.3,33.7v-8.2h5v0.9h-4v2.7h3.8V30h-3.8v2.8h4v0.9H214.3z"/>
	<path d="M222.1,33.7h-1v-8.2h3.3c0.7,0,1.3,0.2,1.7,0.6c0.4,0.4,0.6,1,0.6,1.7c0,0.6-0.1,1.1-0.4,1.5c-0.3,0.4-0.7,0.6-1.2,0.8
		l1.9,3.6h-1.1l-1.8-3.5h-1.9V33.7z M224.4,29.4c0.4,0,0.7-0.1,0.9-0.3c0.2-0.2,0.3-0.5,0.3-0.9v-0.6c0-0.4-0.1-0.7-0.3-0.9
		c-0.2-0.2-0.5-0.3-0.9-0.3h-2.3v2.9H224.4z"/>
	<path d="M230.9,33.9c-0.7,0-1.2-0.1-1.7-0.4s-0.9-0.6-1.2-1l0.7-0.6c0.3,0.4,0.6,0.7,1,0.9c0.4,0.2,0.8,0.3,1.2,0.3
		c0.6,0,1-0.1,1.3-0.4c0.3-0.3,0.5-0.7,0.5-1.1c0-0.4-0.1-0.7-0.4-0.9c-0.2-0.2-0.6-0.4-1.2-0.5l-0.7-0.2c-0.7-0.2-1.3-0.4-1.7-0.8
		c-0.4-0.3-0.6-0.8-0.6-1.5c0-0.4,0.1-0.7,0.2-1c0.1-0.3,0.3-0.5,0.6-0.7c0.2-0.2,0.5-0.3,0.9-0.4c0.3-0.1,0.7-0.1,1.1-0.1
		c0.6,0,1.1,0.1,1.6,0.3c0.4,0.2,0.8,0.6,1.1,1l-0.7,0.5c-0.2-0.3-0.5-0.6-0.8-0.7c-0.3-0.2-0.7-0.3-1.2-0.3c-0.5,0-0.9,0.1-1.2,0.3
		c-0.3,0.2-0.5,0.6-0.5,1c0,0.4,0.1,0.7,0.4,0.9c0.3,0.2,0.6,0.4,1.2,0.5l0.7,0.2c0.8,0.2,1.4,0.5,1.7,0.8s0.5,0.9,0.5,1.5
		c0,0.4-0.1,0.7-0.2,1c-0.1,0.3-0.3,0.6-0.6,0.8c-0.2,0.2-0.5,0.4-0.9,0.5C231.7,33.8,231.3,33.9,230.9,33.9z"/>
	<path d="M238,26.4v7.3h-1v-7.3h-2.6v-0.9h6.2v0.9H238z"/>
	<path d="M242.9,25.6v5.1c0,0.8,0.1,1.4,0.4,1.8c0.3,0.4,0.8,0.6,1.5,0.6c0.7,0,1.2-0.2,1.5-0.6c0.3-0.4,0.4-1,0.4-1.8v-5.1h1v4.8
		c0,0.6-0.1,1.1-0.2,1.5s-0.3,0.8-0.5,1.1c-0.2,0.3-0.5,0.5-0.9,0.6c-0.4,0.1-0.8,0.2-1.4,0.2c-0.5,0-1-0.1-1.4-0.2
		c-0.4-0.1-0.7-0.4-0.9-0.6c-0.2-0.3-0.4-0.7-0.5-1.1c-0.1-0.4-0.1-1-0.1-1.5v-4.8H242.9z M243.7,24.5c-0.2,0-0.4-0.1-0.4-0.2
		c-0.1-0.1-0.1-0.2-0.1-0.4v-0.1c0-0.2,0-0.3,0.1-0.4c0.1-0.1,0.2-0.2,0.4-0.2s0.4,0.1,0.4,0.2c0.1,0.1,0.1,0.2,0.1,0.4V24
		c0,0.2,0,0.3-0.1,0.4C244,24.5,243.9,24.5,243.7,24.5z M245.9,24.5c-0.2,0-0.4-0.1-0.4-0.2c-0.1-0.1-0.1-0.2-0.1-0.4v-0.1
		c0-0.2,0-0.3,0.1-0.4c0.1-0.1,0.2-0.2,0.4-0.2c0.2,0,0.4,0.1,0.4,0.2c0.1,0.1,0.1,0.2,0.1,0.4V24c0,0.2,0,0.3-0.1,0.4
		C246.2,24.5,246.1,24.5,245.9,24.5z"/>
	<path d="M252.6,26.4v7.3h-1v-7.3H249v-0.9h6.2v0.9H252.6z"/>
	<path d="M261.8,33.7h-5.9v-0.9l4.7-6.4h-4.5v-0.9h5.5v0.9l-4.7,6.4h4.9V33.7z"/>
	<path d="M266.1,26.4v7.3h-1v-7.3h-2.6v-0.9h6.2v0.9H266.1z"/>
	<path d="M274.7,33.7l-2.7-8.2h1.1l1.3,4.1l0.9,3.1h0.1l0.9-3.1l1.4-4.1h1l-2.7,8.2H274.7z"/>
	<path d="M282.8,33.9c-0.5,0-1-0.1-1.4-0.3c-0.4-0.2-0.8-0.5-1.1-0.8c-0.3-0.4-0.5-0.8-0.7-1.3c-0.2-0.5-0.2-1.1-0.2-1.8
		c0-0.7,0.1-1.3,0.2-1.8c0.2-0.5,0.4-1,0.7-1.3c0.3-0.4,0.7-0.6,1.1-0.8c0.4-0.2,0.9-0.3,1.4-0.3c0.5,0,1,0.1,1.4,0.3
		c0.4,0.2,0.8,0.5,1.1,0.8c0.3,0.4,0.5,0.8,0.7,1.3c0.2,0.5,0.2,1.1,0.2,1.8c0,0.7-0.1,1.3-0.2,1.8c-0.2,0.5-0.4,1-0.7,1.3
		c-0.3,0.4-0.7,0.6-1.1,0.8C283.8,33.8,283.4,33.9,282.8,33.9z M282.8,33c0.4,0,0.7-0.1,1-0.2c0.3-0.1,0.6-0.3,0.8-0.5
		c0.2-0.2,0.4-0.5,0.5-0.8c0.1-0.3,0.2-0.7,0.2-1.1V29c0-0.4-0.1-0.8-0.2-1.1c-0.1-0.3-0.3-0.6-0.5-0.8c-0.2-0.2-0.5-0.4-0.8-0.5
		c-0.3-0.1-0.6-0.2-1-0.2c-0.4,0-0.7,0.1-1,0.2c-0.3,0.1-0.6,0.3-0.8,0.5c-0.2,0.2-0.4,0.5-0.5,0.8c-0.1,0.3-0.2,0.7-0.2,1.1v1.4
		c0,0.4,0.1,0.8,0.2,1.1c0.1,0.3,0.3,0.6,0.5,0.8c0.2,0.2,0.5,0.4,0.8,0.5C282.2,32.9,282.5,33,282.8,33z"/>
	<path d="M290,28.7l-1-1.8h0v6.8h-1v-8.2h1.1l3,5l1,1.8h0v-6.8h1v8.2H293L290,28.7z"/>
	<path d="M298.1,35.5l3.1-10.4h0.8L299,35.5H298.1z"/>
	<path d="M308.6,33.9c-0.7,0-1.2-0.1-1.7-0.4c-0.5-0.3-0.9-0.6-1.2-1l0.7-0.6c0.3,0.4,0.6,0.7,1,0.9c0.4,0.2,0.8,0.3,1.2,0.3
		c0.6,0,1-0.1,1.3-0.4c0.3-0.3,0.5-0.7,0.5-1.1c0-0.4-0.1-0.7-0.4-0.9c-0.2-0.2-0.6-0.4-1.2-0.5l-0.7-0.2c-0.7-0.2-1.3-0.4-1.7-0.8
		c-0.4-0.3-0.6-0.8-0.6-1.5c0-0.4,0.1-0.7,0.2-1c0.1-0.3,0.3-0.5,0.6-0.7c0.2-0.2,0.5-0.3,0.9-0.4c0.3-0.1,0.7-0.1,1.1-0.1
		c0.6,0,1.1,0.1,1.6,0.3c0.4,0.2,0.8,0.6,1.1,1l-0.7,0.5c-0.2-0.3-0.5-0.6-0.8-0.7c-0.3-0.2-0.7-0.3-1.2-0.3c-0.5,0-0.9,0.1-1.2,0.3
		c-0.3,0.2-0.5,0.6-0.5,1c0,0.4,0.1,0.7,0.4,0.9c0.3,0.2,0.6,0.4,1.2,0.5l0.7,0.2c0.8,0.2,1.4,0.5,1.7,0.8s0.5,0.9,0.5,1.5
		c0,0.4-0.1,0.7-0.2,1c-0.1,0.3-0.3,0.6-0.6,0.8c-0.2,0.2-0.5,0.4-0.9,0.5C309.5,33.8,309.1,33.9,308.6,33.9z"/>
	<path d="M314.1,25.6v5.1c0,0.8,0.1,1.4,0.4,1.8c0.3,0.4,0.8,0.6,1.5,0.6c0.7,0,1.2-0.2,1.5-0.6c0.3-0.4,0.4-1,0.4-1.8v-5.1h1v4.8
		c0,0.6-0.1,1.1-0.2,1.5c-0.1,0.4-0.3,0.8-0.5,1.1c-0.2,0.3-0.5,0.5-0.9,0.6c-0.4,0.1-0.8,0.2-1.4,0.2c-0.5,0-1-0.1-1.4-0.2
		c-0.4-0.1-0.7-0.4-0.9-0.6c-0.2-0.3-0.4-0.7-0.5-1.1c-0.1-0.4-0.1-1-0.1-1.5v-4.8H314.1z"/>
	<path d="M321.1,33.7v-8.2h3.3c0.7,0,1.3,0.2,1.7,0.6c0.4,0.4,0.6,1,0.6,1.7s-0.2,1.3-0.6,1.7c-0.4,0.4-1,0.6-1.7,0.6h-2.3v3.5
		H321.1z M322.1,29.4h2.3c0.4,0,0.7-0.1,0.9-0.3c0.2-0.2,0.3-0.5,0.3-0.9v-0.6c0-0.4-0.1-0.7-0.3-0.9s-0.5-0.3-0.9-0.3h-2.3V29.4z"
		/>
	<path d="M328.2,33.7v-8.2h3.3c0.7,0,1.3,0.2,1.7,0.6c0.4,0.4,0.6,1,0.6,1.7s-0.2,1.3-0.6,1.7c-0.4,0.4-1,0.6-1.7,0.6h-2.3v3.5
		H328.2z M329.1,29.4h2.3c0.4,0,0.7-0.1,0.9-0.3c0.2-0.2,0.3-0.5,0.3-0.9v-0.6c0-0.4-0.1-0.7-0.3-0.9c-0.2-0.2-0.5-0.3-0.9-0.3h-2.3
		V29.4z"/>
	<path d="M338.3,33.9c-0.5,0-1-0.1-1.4-0.3c-0.4-0.2-0.8-0.5-1.1-0.8c-0.3-0.4-0.5-0.8-0.7-1.3c-0.2-0.5-0.2-1.1-0.2-1.8
		c0-0.7,0.1-1.3,0.2-1.8c0.2-0.5,0.4-1,0.7-1.3c0.3-0.4,0.7-0.6,1.1-0.8c0.4-0.2,0.9-0.3,1.4-0.3c0.5,0,1,0.1,1.4,0.3
		c0.4,0.2,0.8,0.5,1.1,0.8c0.3,0.4,0.5,0.8,0.7,1.3s0.2,1.1,0.2,1.8c0,0.7-0.1,1.3-0.2,1.8c-0.2,0.5-0.4,1-0.7,1.3
		c-0.3,0.4-0.7,0.6-1.1,0.8C339.3,33.8,338.8,33.9,338.3,33.9z M338.3,33c0.4,0,0.7-0.1,1-0.2c0.3-0.1,0.6-0.3,0.8-0.5
		c0.2-0.2,0.4-0.5,0.5-0.8s0.2-0.7,0.2-1.1V29c0-0.4-0.1-0.8-0.2-1.1c-0.1-0.3-0.3-0.6-0.5-0.8c-0.2-0.2-0.5-0.4-0.8-0.5
		c-0.3-0.1-0.6-0.2-1-0.2c-0.4,0-0.7,0.1-1,0.2c-0.3,0.1-0.6,0.3-0.8,0.5c-0.2,0.2-0.4,0.5-0.5,0.8c-0.1,0.3-0.2,0.7-0.2,1.1v1.4
		c0,0.4,0.1,0.8,0.2,1.1c0.1,0.3,0.3,0.6,0.5,0.8c0.2,0.2,0.5,0.4,0.8,0.5C337.6,32.9,338,33,338.3,33z"/>
	<path d="M344.5,33.7h-1v-8.2h3.3c0.7,0,1.3,0.2,1.7,0.6c0.4,0.4,0.6,1,0.6,1.7c0,0.6-0.1,1.1-0.4,1.5c-0.3,0.4-0.7,0.6-1.2,0.8
		l1.9,3.6h-1.1l-1.8-3.5h-1.9V33.7z M346.8,29.4c0.4,0,0.7-0.1,0.9-0.3c0.2-0.2,0.3-0.5,0.3-0.9v-0.6c0-0.4-0.1-0.7-0.3-0.9
		c-0.2-0.2-0.5-0.3-0.9-0.3h-2.3v2.9H346.8z"/>
	<path d="M353.5,26.4v7.3h-1v-7.3h-2.6v-0.9h6.2v0.9H353.5z"/>
	<path d="M357.4,33.7v-8.2h5v0.9h-4v2.7h3.8V30h-3.8v2.8h4v0.9H357.4z"/>
	<path d="M364.3,25.6h2.7c0.5,0,1,0.1,1.4,0.3c0.4,0.2,0.8,0.4,1.1,0.8c0.3,0.3,0.5,0.8,0.7,1.3c0.2,0.5,0.2,1.1,0.2,1.8
		c0,0.7-0.1,1.3-0.2,1.8c-0.2,0.5-0.4,0.9-0.7,1.3c-0.3,0.3-0.6,0.6-1.1,0.8c-0.4,0.2-0.9,0.3-1.4,0.3h-2.7V25.6z M367,32.9
		c0.3,0,0.6-0.1,0.9-0.2c0.3-0.1,0.5-0.3,0.7-0.5c0.2-0.2,0.4-0.5,0.5-0.8c0.1-0.3,0.2-0.7,0.2-1.1V29c0-0.4-0.1-0.8-0.2-1.1
		c-0.1-0.3-0.3-0.6-0.5-0.8c-0.2-0.2-0.4-0.4-0.7-0.5c-0.3-0.1-0.6-0.2-0.9-0.2h-1.8v6.4H367z"/>
	<path d="M374.9,25.6h3.4c0.7,0,1.2,0.2,1.6,0.6c0.4,0.4,0.6,0.9,0.6,1.5c0,0.3,0,0.6-0.1,0.8c-0.1,0.2-0.2,0.4-0.3,0.5
		c-0.1,0.1-0.3,0.2-0.4,0.3c-0.2,0.1-0.3,0.1-0.4,0.1v0.1c0.1,0,0.3,0,0.5,0.1c0.2,0.1,0.4,0.2,0.5,0.3c0.2,0.2,0.3,0.3,0.4,0.6
		c0.1,0.2,0.2,0.5,0.2,0.9s-0.1,0.6-0.2,0.9s-0.3,0.5-0.4,0.7c-0.2,0.2-0.4,0.4-0.7,0.5c-0.3,0.1-0.5,0.2-0.8,0.2h-3.7V25.6z
		 M375.9,29.1h2.3c0.4,0,0.7-0.1,0.9-0.3c0.2-0.2,0.3-0.5,0.3-0.8v-0.4c0-0.4-0.1-0.6-0.3-0.8s-0.5-0.3-0.9-0.3h-2.3V29.1z
		 M375.9,32.9h2.4c0.4,0,0.8-0.1,1-0.3s0.4-0.5,0.4-0.9v-0.4c0-0.4-0.1-0.7-0.4-0.9s-0.6-0.3-1-0.3h-2.4V32.9z"/>
	<path d="M384,33.7v-3.2l-2.8-4.9h1.1l2.2,3.9h0l2.2-3.9h1.1l-2.8,4.9v3.3H384z"/>
</g>
</svg>
